<?xml version="1.0" standalone="no"?>
<!DOCTYPE svg PUBLIC "-//W3C//DTD SVG 20010904//EN"
 "http://www.w3.org/TR/2001/REC-SVG-20010904/DTD/svg10.dtd">
<svg version="1.0" xmlns="http://www.w3.org/2000/svg"
 width="501.000000pt" height="501.000000pt" viewBox="0 0 501.000000 501.000000"
 preserveAspectRatio="xMidYMid meet">

<g transform="translate(0.000000,501.000000) scale(0.100000,-0.100000)"
fill="#000000" stroke="none">
<path d="M4512 4650 c-57 -26 -298 -161 -527 -295 -104 -61 -210 -122 -233
-136 -65 -36 -72 -56 -72 -219 l0 -140 -134 70 -135 70 -138 -89 c-174 -111
-373 -225 -577 -331 l-158 -83 7 -451 7 -451 -40 -22 c-22 -13 -42 -23 -46
-23 -3 0 -6 62 -6 138 l0 138 -178 99 c-97 54 -288 165 -425 247 -136 81 -257
148 -270 148 -12 0 -57 -20 -101 -45 -43 -25 -82 -45 -87 -45 -5 0 -40 62 -78
138 -38 75 -77 144 -87 153 -75 66 -575 360 -623 366 -31 4 -56 -6 -181 -75
-80 -44 -178 -97 -218 -119 l-74 -38 1 -742 c1 -408 4 -748 6 -755 4 -9 -19
-25 -67 -48 l-73 -35 2 -729 c1 -401 4 -740 7 -752 4 -13 16 -26 29 -30 12 -4
105 -56 205 -115 101 -60 194 -109 206 -109 25 0 186 88 436 238 284 170 420
262 424 286 3 11 7 119 10 238 l6 217 -43 34 c-52 43 -143 99 -281 172 l-107
57 3 122 3 121 60 8 c34 5 86 22 119 39 l59 31 -4 -164 c-4 -156 -3 -164 15
-167 11 -2 55 -26 99 -53 43 -27 82 -49 85 -49 4 0 31 -16 59 -35 29 -19 61
-35 72 -35 23 0 122 51 170 87 44 34 51 23 51 -95 0 -125 10 -142 118 -193 45
-22 105 -53 133 -69 27 -17 58 -30 67 -29 9 0 55 22 102 48 l85 48 3 -132 3
-133 282 -170 c380 -229 555 -328 595 -337 30 -6 46 2 171 84 76 50 167 104
204 121 62 30 66 33 73 73 4 23 5 341 3 707 l-4 665 162 100 c95 58 166 108
170 120 3 11 9 77 12 146 l6 126 124 -69 124 -68 427 245 c322 185 429 251
434 268 3 12 6 234 6 492 l0 470 -91 66 -91 67 79 42 c120 66 113 54 113 200
0 108 -3 129 -17 142 -10 8 -74 46 -143 83 -69 38 -152 85 -185 105 -101 62
-96 61 -143 40z m126 -85 c50 -30 134 -78 187 -106 53 -28 93 -55 88 -59 -4
-4 -129 -77 -278 -163 -148 -85 -323 -186 -388 -226 l-118 -71 -97 58 c-53 33
-136 81 -184 107 -49 27 -88 52 -88 55 0 8 297 184 569 337 119 67 216 122
217 122 1 1 42 -24 92 -54z m312 -299 l0 -94 -157 -88 c-177 -98 -268 -156
-276 -177 -3 -8 -3 -69 0 -136 5 -99 9 -121 21 -121 8 0 99 47 202 105 102 58
189 105 193 105 4 0 7 -204 7 -453 l0 -453 -391 -224 c-215 -124 -396 -227
-401 -228 -5 -2 -8 38 -6 93 l3 97 206 114 206 114 7 132 c4 86 3 135 -4 142
-12 12 -113 -36 -299 -143 l-124 -71 9 103 c5 56 9 263 9 460 l0 357 110 66
c113 69 677 394 682 394 2 0 3 -42 3 -94z m-977 -289 l137 -81 0 -330 c0 -269
-12 -550 -25 -564 -1 -1 -38 19 -81 46 -44 27 -112 66 -151 87 -40 22 -73 42
-73 46 0 4 9 11 20 14 49 16 50 21 49 273 0 155 -5 248 -12 269 -8 22 -30 44
-62 66 l-50 32 -3 144 -3 143 58 -32 c32 -18 120 -69 196 -113z m894 -44 l38
-31 -30 -17 c-16 -9 -90 -50 -163 -91 -73 -40 -137 -74 -142 -74 -6 0 -10 36
-10 85 l0 84 83 54 c45 30 89 56 97 59 18 6 75 -25 127 -69z m-1378 -28 c76
-38 261 -143 274 -155 13 -12 -256 -181 -602 -378 l-174 -100 -86 53 c-48 29
-131 76 -185 105 l-98 53 104 55 c185 98 384 212 535 308 81 51 151 93 156 94
4 0 38 -16 76 -35z m-2715 -152 c170 -98 386 -236 386 -245 0 -4 -14 -15 -32
-24 -18 -9 -95 -55 -172 -102 l-141 -85 -110 57 c-125 65 -485 278 -485 287 0
3 17 14 38 23 21 10 105 55 188 100 124 70 153 82 173 75 13 -5 82 -44 155
-86z m3026 -278 l0 -224 -105 -61 -104 -62 5 -111 c7 -140 10 -157 32 -157 9
0 52 20 94 44 54 31 80 41 85 33 4 -7 9 -149 11 -317 l4 -305 -151 -94 -152
-93 -20 21 c-11 12 -42 32 -69 46 -28 14 -50 29 -50 33 0 4 23 17 51 29 l50
22 -3 143 -3 143 -32 -1 c-20 -1 -71 -25 -130 -60 l-98 -59 -3 -57 c-2 -32 -6
-58 -10 -58 -4 0 -50 26 -102 58 l-95 57 3 285 c1 157 5 335 8 397 l6 111 177
100 c97 55 271 159 386 231 116 71 211 130 213 130 1 1 2 -100 2 -224z m-3453
28 c129 -79 339 -197 386 -217 32 -13 44 -30 107 -153 39 -76 87 -169 107
-206 l37 -69 7 -231 c12 -390 11 -735 -3 -743 -6 -4 -29 -10 -50 -14 l-38 -7
0 97 c0 87 -2 98 -22 117 -38 35 -205 140 -316 200 -84 45 -108 54 -121 45
-75 -53 -224 -142 -236 -142 -13 0 -15 82 -15 711 l0 711 28 -18 c15 -10 73
-46 129 -81z m938 -168 c38 -74 67 -136 65 -138 -3 -2 -43 -26 -90 -52 -47
-27 -91 -55 -97 -63 -7 -9 -13 -35 -13 -57 0 -41 -2 -43 -60 -79 -34 -21 -67
-35 -74 -33 -12 5 -170 294 -178 326 -2 8 64 54 177 122 99 60 185 109 190
109 6 0 41 -61 80 -135z m1407 54 c51 -28 135 -76 185 -106 l93 -55 -6 -372
c-4 -204 -8 -373 -10 -375 -2 -2 -64 36 -139 84 -135 87 -148 91 -196 71 -12
-5 -18 0 -23 25 -7 37 -8 779 -1 779 3 0 47 -23 97 -51z m-921 -222 c147 -90
446 -263 556 -322 l53 -28 -157 -89 c-87 -49 -169 -98 -184 -109 -15 -10 -30
-19 -33 -19 -3 0 -96 60 -208 134 -112 73 -277 177 -368 229 -91 53 -171 100
-179 104 -20 12 328 213 350 202 8 -4 85 -50 170 -102z m2020 -53 c38 -20 69
-40 69 -44 0 -4 -12 -12 -26 -19 -23 -10 -34 -7 -95 26 l-70 38 23 17 c13 10
25 18 27 18 1 0 34 -16 72 -36z m729 -54 c0 -38 -2 -70 -4 -70 -7 0 -126 72
-126 76 0 5 112 63 123 64 4 0 7 -31 7 -70z m-804 -26 c72 -40 74 -35 -17 -87
l-46 -26 -7 52 c-7 66 -8 97 0 97 3 0 35 -16 70 -36z m295 -49 c52 -30 103
-55 114 -55 12 0 61 23 109 51 59 33 96 49 110 45 30 -8 129 -69 133 -82 2 -7
-80 -57 -182 -114 l-185 -101 -124 75 c-119 74 -124 78 -130 116 -9 55 1 88
33 105 14 8 27 14 27 15 1 0 44 -25 95 -55z m-2640 -43 c192 -110 285 -168
472 -295 l147 -99 0 -694 0 -693 -102 50 c-57 27 -112 56 -122 63 -23 15 -35
96 -35 242 -1 50 -4 132 -7 182 -7 88 -8 91 -36 103 -16 7 -73 41 -126 75 -53
35 -100 64 -104 64 -19 0 -24 -54 -17 -200 4 -85 8 -184 8 -219 l1 -63 -25 16
c-13 9 -46 28 -72 43 -26 14 -75 43 -108 63 l-60 37 1 99 c6 630 19 1314 24
1314 4 0 76 -40 161 -88z m-221 -469 c0 -247 -3 -464 -6 -484 -5 -29 -14 -41
-46 -59 -22 -12 -42 -19 -45 -16 -8 8 -12 142 -16 572 l-4 371 51 31 c28 17
54 31 59 31 4 1 7 -200 7 -446z m2833 277 l107 -65 0 -87 c0 -49 -3 -88 -7
-88 -3 0 -53 26 -109 58 l-104 57 0 60 c0 33 -3 77 -7 99 -3 22 -2 37 3 35 5
-2 58 -33 117 -69z m-1565 -106 l-3 -127 -96 -55 -96 -55 -7 -156 c-3 -86 -9
-344 -13 -574 -4 -281 -10 -420 -17 -426 -19 -16 -137 -81 -147 -81 -11 0 -12
678 -2 1106 l6 290 31 19 c124 74 323 185 334 185 10 0 12 -29 10 -126z m391
-132 c145 -94 346 -216 523 -317 l107 -62 -147 -80 c-81 -45 -161 -88 -178
-96 l-31 -16 -382 224 c-210 122 -383 227 -383 231 -1 9 330 204 346 204 5 0
70 -40 145 -88z m631 -82 c0 -48 -4 -80 -10 -80 -10 0 -111 50 -139 68 -10 7
4 20 55 50 38 23 75 41 82 42 8 0 12 -22 12 -80z m-110 -87 c38 -21 70 -41 70
-44 0 -3 -17 -14 -39 -23 -36 -17 -41 -17 -70 -2 -17 9 -31 23 -31 30 0 7 -3
28 -6 45 -4 17 -4 31 0 31 4 0 38 -17 76 -37z m-635 -230 l370 -218 6 -165
c10 -257 10 -1223 0 -1238 -6 -11 -41 5 -152 68 -174 100 -615 364 -648 389
-23 17 -23 23 -26 187 -3 208 12 1029 20 1141 l7 83 26 -15 c15 -8 194 -112
397 -232z m-2120 101 c139 -79 257 -155 250 -163 -4 -3 -88 -52 -188 -107
l-182 -102 -30 20 c-16 10 -99 60 -182 110 l-153 91 88 43 c48 23 128 70 177
103 50 32 97 60 105 60 8 1 60 -24 115 -55z m2898 -221 c4 -54 7 -368 6 -698
l0 -600 -67 -32 c-37 -17 -115 -64 -174 -102 -59 -39 -108 -71 -110 -71 -2 0
-4 318 -4 708 l-2 707 167 92 c91 50 169 92 172 92 3 1 9 -43 12 -96z m-3380
11 c80 -41 304 -181 324 -203 l23 -24 -1 -516 c-1 -284 -4 -593 -8 -688 l-6
-172 -170 99 c-93 55 -177 103 -185 108 -13 8 -15 100 -19 711 -1 385 0 701 3
701 4 0 21 -7 39 -16z m757 -474 c0 -411 2 -471 15 -476 8 -4 21 -2 28 4 17
14 375 212 383 212 3 0 5 -88 2 -196 -4 -190 -4 -196 -27 -213 -51 -39 -398
-251 -576 -353 l-190 -109 -3 643 c-2 354 0 671 3 705 l6 62 172 95 c95 52
175 95 180 96 4 0 7 -212 7 -470z m753 264 l77 -46 0 -87 0 -87 -87 -58 -88
-58 -6 53 c-4 30 -9 123 -12 207 l-6 153 22 -15 c12 -8 57 -36 100 -62z m-567
-340 c137 -76 214 -126 214 -136 0 -4 -24 -20 -52 -34 -29 -15 -108 -58 -176
-96 -68 -39 -126 -68 -129 -65 -8 8 9 397 18 397 4 0 60 -30 125 -66z"/>
<path d="M3337 3236 c-42 -25 -91 -55 -107 -66 l-31 -22 3 -131 c3 -119 5
-132 21 -135 19 -4 226 93 240 112 4 6 6 72 5 146 l-3 135 -25 3 c-15 1 -56
-15 -103 -42z m93 -94 c0 -43 -3 -81 -6 -84 -4 -5 -138 63 -152 76 -5 6 131
86 146 86 8 0 12 -22 12 -78z m-107 -92 c37 -19 67 -37 67 -40 -1 -6 -132 -71
-136 -67 -8 8 -15 149 -7 146 5 -2 39 -20 76 -39z"/>
<path d="M350 2743 l0 -318 101 -62 c55 -35 111 -63 124 -63 14 0 37 15 59 40
l36 40 0 225 0 225 -36 55 c-31 47 -52 63 -143 115 -58 33 -114 60 -123 60
-17 0 -18 -21 -18 -317z m128 213 c39 -19 86 -54 110 -80 l42 -46 0 -92 c0
-51 -3 -103 -6 -115 -4 -15 -40 -42 -111 -84 -57 -33 -107 -58 -110 -56 -3 3
-8 119 -11 256 -4 189 -2 251 7 251 6 0 42 -15 79 -34z m119 -584 l-25 -24
-72 43 -72 42 27 16 c15 9 57 34 94 56 l66 41 3 -75 c3 -68 1 -77 -21 -99z"/>
<path d="M1472 2422 c-9 -7 -12 -43 -10 -148 l3 -139 91 -45 c50 -25 98 -51
106 -58 11 -9 23 -10 42 -2 l26 10 0 122 c0 68 -4 128 -8 134 -14 23 -206 134
-229 134 -4 0 -14 -4 -21 -8z m113 -93 c38 -22 71 -42 73 -44 3 -3 -143 -85
-153 -85 -3 0 -5 38 -5 85 0 47 3 85 8 85 4 0 39 -18 77 -41z m97 -167 l-3
-78 -69 35 c-38 20 -66 39 -61 44 4 4 36 23 72 42 35 19 64 35 64 35 0 0 -1
-35 -3 -78z"/>
<path d="M2536 1732 c-7 -12 -10 -498 -2 -510 10 -17 212 -122 235 -122 30 0
33 37 28 286 l-5 219 -114 67 c-112 67 -132 76 -142 60z m127 -107 l74 -45 7
-61 c3 -34 6 -83 6 -109 0 -46 -2 -49 -47 -78 -57 -36 -121 -67 -127 -61 -5 5
5 399 10 399 2 0 37 -20 77 -45z m92 -463 c-3 -3 -35 9 -72 27 -36 17 -63 35
-59 38 3 4 32 21 64 39 l57 33 8 -66 c5 -35 6 -68 2 -71z"/>
</g>
</svg>
