<svg width="344" height="385" viewBox="0 0 344 385" fill="none" xmlns="http://www.w3.org/2000/svg">
<path d="M343.6 213.418C343.6 237.24 339.128 259.611 330.126 280.528C321.123 301.446 308.984 319.574 293.593 334.972C278.202 350.37 260.081 362.572 239.173 371.52C218.264 380.526 195.903 385 172.09 385C148.278 385 125.917 380.526 105.008 371.52C84.0995 362.514 65.8625 350.254 50.2971 334.682C34.7317 319.11 22.4769 300.865 13.4745 279.947C4.47214 259.03 0 236.717 0 212.837C0 188.956 4.47214 167.166 13.4745 146.307C22.4769 125.389 34.7898 107.203 50.5875 91.5726C66.3271 76.0006 84.5642 63.7406 105.299 54.7344C125.975 45.7282 148.278 41.2542 172.09 41.2542C178.305 41.2542 184.171 41.6028 189.689 42.3581C195.206 43.1135 200.666 43.9851 206.183 45.0891V7.14686C206.183 2.3823 208.565 0 213.327 0H336.979C341.393 0 343.6 2.3823 343.6 7.14686V213.36V213.418ZM329.835 13.7708H302.363V212.837C302.363 230.791 298.995 247.757 292.199 263.678C285.404 279.599 276.053 293.486 264.147 305.223C252.241 316.96 238.418 326.315 222.62 333.287C206.88 340.26 189.979 343.746 172.032 343.746C154.086 343.746 137.126 340.26 121.213 333.287C105.299 326.315 91.4176 316.96 79.6855 305.223C67.9534 293.486 58.6025 279.657 51.6329 263.678C44.6634 247.699 41.1786 230.791 41.1786 212.837C41.1786 194.882 44.6634 178.032 51.6329 162.228C58.6025 146.481 68.0114 132.711 79.9178 120.973C91.8242 109.236 105.647 99.8816 121.445 92.909C137.184 85.9365 154.028 82.4502 172.032 82.4502C183.764 82.4502 195.09 83.9028 206.125 86.8662V58.8017C200.608 57.6977 195.148 56.768 189.631 56.0708C184.113 55.3154 178.247 54.9668 172.032 54.9668C150.427 54.9668 129.983 59.0922 110.758 67.3431C91.5338 75.5939 74.7487 86.8661 60.4611 101.16C46.1734 115.454 34.7898 132.246 26.3682 151.478C17.9467 170.711 13.7068 191.164 13.7068 212.778C13.7068 234.393 17.8305 255.369 26.0778 274.66C34.3252 293.892 45.5926 310.684 59.8803 324.978C74.1679 339.272 90.9529 350.544 110.177 358.795C129.402 367.046 150.02 371.171 172.032 371.171C194.045 371.171 214.547 367.046 233.597 358.795C252.647 350.544 269.316 339.272 283.604 324.978C297.891 310.684 309.159 293.892 317.406 274.66C325.653 255.427 329.777 234.8 329.777 212.778V13.7127L329.835 13.7708ZM288.598 13.7708H261.127V212.837C261.127 225.329 258.804 236.95 254.273 247.757C249.685 258.565 243.354 268.036 235.339 276.054C227.324 284.073 217.857 290.522 207.054 295.287C196.252 300.051 184.578 302.434 172.148 302.434C159.719 302.434 148.626 300.168 137.765 295.577C126.962 290.987 117.437 284.654 109.19 276.577C100.943 268.501 94.4377 259.088 89.6752 248.28C84.9127 237.473 82.5314 225.852 82.5314 213.36C82.5314 200.867 84.9127 189.246 89.6752 178.439C94.4377 167.631 100.827 158.16 108.9 150.142C116.973 142.123 126.382 135.674 137.184 130.909C147.987 126.145 159.603 123.762 172.09 123.762C184.578 123.762 195.555 125.97 206.183 130.386V101.218C195.555 97.906 184.171 96.279 172.09 96.279C155.944 96.279 140.785 99.3005 126.44 105.343C112.094 111.386 99.6649 119.753 89.0363 130.386C78.4077 141.019 70.0442 153.454 64.0039 167.806C57.9636 182.157 54.9435 197.323 54.9435 213.476C54.9435 229.629 58.0798 244.794 64.2943 259.146C70.5089 273.439 78.9304 285.816 89.559 296.275C100.188 306.733 112.559 314.984 126.672 321.027C140.785 327.07 155.886 330.091 172.032 330.091C188.179 330.091 203.337 327.07 217.683 321.027C231.971 314.984 244.342 306.617 254.796 295.984C265.25 285.351 273.498 272.917 279.538 258.565C285.578 244.213 288.598 229.048 288.598 212.895V13.8289V13.7708ZM219.89 13.7708V212.837C219.89 226.375 215.302 237.88 206.125 247.234C196.949 256.589 185.623 261.238 172.032 261.238C158.442 261.238 147.581 256.647 138.23 247.467C128.879 238.286 124 226.956 123.652 213.36C123.652 199.821 128.298 188.317 137.649 178.962C147 169.607 158.442 164.959 172.032 164.959C185.623 164.959 197.297 169.723 206.125 179.252V145.726C201.014 143.169 195.613 141.136 189.921 139.683C184.229 138.23 178.305 137.475 172.032 137.475C161.404 137.475 151.53 139.509 142.354 143.518C133.177 147.585 125.22 152.931 118.425 159.729C111.629 166.527 106.228 174.604 102.22 183.901C98.1548 193.255 96.1801 203.075 96.1801 213.301C96.1801 223.528 98.2129 233.754 102.22 242.702C106.228 251.708 111.746 259.669 118.715 266.641C125.685 273.614 133.758 279.017 142.876 282.852C152.053 286.687 161.752 288.605 172.032 288.605C182.312 288.605 192.012 286.687 201.188 282.852C210.365 279.017 218.38 273.614 225.35 266.641C232.319 259.669 237.721 251.708 241.554 242.702C245.387 233.696 247.304 223.934 247.304 213.301V13.6546H219.832L219.89 13.7708ZM196.252 237.299C202.873 230.5 206.125 222.366 206.125 212.837V210.106C205.37 201.68 201.885 194.359 195.671 188.084C189.456 181.867 181.557 178.729 172.032 178.729C162.507 178.729 154.376 182.041 147.581 188.607C140.785 195.231 137.417 203.249 137.417 212.778C137.417 222.308 140.785 230.442 147.581 237.24C154.376 244.039 162.507 247.409 172.032 247.409C181.557 247.409 189.631 244.039 196.194 237.24L196.252 237.299Z" fill="black"/>
</svg>
